<svg xmlns="http://www.w3.org/2000/svg"
     xmlns:xlink="http://www.w3.org/1999/xlink" version="1.1" x="0px" y="0px"
     viewBox="0 0 100 100" xml:space="preserve">
  <path
    fill="#FFF"
    stroke="#888"
    stroke-width="1"
    d="M94.543,48.617H77.999c0,0,41.751-17.072-2.628-26.157c-0.027,0.022-2.246-0.353-2.246-0.353S70.5,12.539,70.5,11.67  c0-2.983-3.95-5.75-7.047-6.068c-0.027,0-1.727-0.496-4.223,0.056c-2.104,0.464-3.773,0.962-6.462,1.229  C48.59,7.303,43.99,7.243,40.335,7.652c-2.877,0.394-3.941,1.809-4.378,2.372C35.562,10.534,27.449,25.112,26,27.17  c-0.151,0.215,0.188-3.332,0.188-3.332s-38.854,10.542-8.166,24.779C18,48.463,0,48.758,0,48.758l17.6,24.076  c0,0-4.475,4.961-6.475,7.461s-6.338,12.25-6.338,12.25h88.137c0,0-3.02-14.21-10.138-22.244c-0.169-0.191-6.064,2.917-6.007,2.628  C76.827,72.695,94.543,48.617,94.543,48.617z M50.967,63.166c-7.978,0.938-10.402-1.399-12.092-4.496  c0.281,0-4.615,3.839-9.965,2.056c-5.351-1.783-7.737-10.245-6.477-9.861c5.948,1.81,23.519,5.61,36.694,3.098  C61.988,53.416,58.945,62.229,50.967,63.166z"/>
  <path d="M80.426,67.639"/>
</svg>
