<?xml version="1.0" encoding="iso-8859-1"?>
<!DOCTYPE svg PUBLIC "-//W3C//DTD SVG 1.1//EN" "http://www.w3.org/Graphics/SVG/1.1/DTD/svg11.dtd">
<svg version="1.1" id="Capa_1" xmlns="http://www.w3.org/2000/svg" xmlns:xlink="http://www.w3.org/1999/xlink" x="0px" y="0px"
	 viewBox="0 0 550.799 550.8" style="enable-background:new 0 0 550.799 550.8;"
	 xml:space="preserve">
<g>
	<path d="M485.229,0H65.571C46.259,0,30.6,15.659,30.6,34.972v480.856c0,19.313,15.659,34.972,34.971,34.972h419.658
		c19.312,0,34.971-15.658,34.971-34.972V34.972C520.2,15.659,504.542,0,485.229,0z M126.771,515.828
		c0,4.826-3.917,8.743-8.743,8.743H65.571c-4.826,0-8.743-3.917-8.743-8.743v-43.714c0-4.826,3.917-8.743,8.743-8.743h52.458
		c4.826,0,8.743,3.917,8.743,8.743V515.828z M126.771,428.4c0,4.826-3.917,8.742-8.743,8.742H65.571
		c-4.826,0-8.743-3.916-8.743-8.742v-43.715c0-4.826,3.917-8.742,8.743-8.742h52.458c4.826,0,8.743,3.916,8.743,8.742V428.4z
		 M126.771,340.972c0,4.826-3.917,8.742-8.743,8.742H65.571c-4.826,0-8.743-3.916-8.743-8.742v-43.715
		c0-4.825,3.917-8.742,8.743-8.742h52.458c4.826,0,8.743,3.917,8.743,8.742V340.972z M126.771,253.543
		c0,4.826-3.917,8.743-8.743,8.743H65.571c-4.826,0-8.743-3.917-8.743-8.743v-43.714c0-4.826,3.917-8.743,8.743-8.743h52.458
		c4.826,0,8.743,3.917,8.743,8.743V253.543z M126.771,166.114c0,4.826-3.917,8.743-8.743,8.743H65.571
		c-4.826,0-8.743-3.917-8.743-8.743V122.4c0-4.826,3.917-8.743,8.743-8.743h52.458c4.826,0,8.743,3.917,8.743,8.743V166.114z
		 M126.771,78.686c0,4.826-3.917,8.743-8.743,8.743H65.571c-4.826,0-8.743-3.917-8.743-8.743V34.972
		c0-4.826,3.917-8.743,8.743-8.743h52.458c4.826,0,8.743,3.917,8.743,8.743V78.686z M397.799,515.828
		c0,4.826-3.916,8.743-8.742,8.743H161.743c-4.826,0-8.743-3.917-8.743-8.743V297.257c0-4.825,3.917-8.742,8.743-8.742h227.314
		c4.826,0,8.742,3.917,8.742,8.742V515.828z M389.057,262.286H161.743c-4.826,0-8.743-3.917-8.743-8.743V34.972
		c0-4.826,3.917-8.743,8.743-8.743h227.314c4.826,0,8.742,3.917,8.742,8.743v218.571
		C397.799,258.369,393.883,262.286,389.057,262.286z M493.971,515.828c0,4.826-3.916,8.743-8.742,8.743h-52.457
		c-4.826,0-8.744-3.917-8.744-8.743v-43.714c0-4.826,3.918-8.743,8.744-8.743h52.457c4.826,0,8.742,3.917,8.742,8.743V515.828z
		 M493.971,428.4c0,4.826-3.916,8.742-8.742,8.742h-52.457c-4.826,0-8.744-3.916-8.744-8.742v-43.715
		c0-4.826,3.918-8.742,8.744-8.742h52.457c4.826,0,8.742,3.916,8.742,8.742V428.4z M493.971,340.972
		c0,4.826-3.916,8.742-8.742,8.742h-52.457c-4.826,0-8.744-3.916-8.744-8.742v-43.715c0-4.825,3.918-8.742,8.744-8.742h52.457
		c4.826,0,8.742,3.917,8.742,8.742V340.972z M493.971,253.543c0,4.826-3.916,8.743-8.742,8.743h-52.457
		c-4.826,0-8.744-3.917-8.744-8.743v-43.714c0-4.826,3.918-8.743,8.744-8.743h52.457c4.826,0,8.742,3.917,8.742,8.743V253.543z
		 M493.971,166.114c0,4.826-3.916,8.743-8.742,8.743h-52.457c-4.826,0-8.744-3.917-8.744-8.743V122.4
		c0-4.826,3.918-8.743,8.744-8.743h52.457c4.826,0,8.742,3.917,8.742,8.743V166.114z M493.971,78.686
		c0,4.826-3.916,8.743-8.742,8.743h-52.457c-4.826,0-8.744-3.917-8.744-8.743V34.972c0-4.826,3.918-8.743,8.744-8.743h52.457
		c4.826,0,8.742,3.917,8.742,8.743V78.686z" fill="white"/>
</g>
</svg>
