<svg xmlns="http://www.w3.org/2000/svg" viewBox="0 0 32 32">
    <path style="text-indent:0;text-align:start;line-height:normal;text-transform:none;block-progression:tb;-inkscape-font-specification:Sans" d="M 5.625 5 C 3.9515919 5 2.4423142 5.9771696 1.75 7.5 L 1.28125 8.5 C 1.0554707 8.996577 0.99315764 9.500859 1.03125 10 L 1 10 L 1 23 C 1 25.197334 2.8026661 27 5 27 L 27 27 C 29.197334 27 31 25.197334 31 23 L 31 10 L 30.96875 10 C 31.006884 9.500859 30.944529 8.996577 30.71875 8.5 L 30.25 7.5 C 29.557686 5.9771696 28.048408 5 26.375 5 L 5.625 5 z M 5.625 7 L 26.375 7 C 27.269592 7 28.067814 7.5305804 28.4375 8.34375 L 28.90625 9.34375 C 29.278149 10.161702 28.710569 11 27.8125 11 L 4.1875 11 C 3.2879971 11 2.7218508 10.161702 3.09375 9.34375 L 3.5625 8.34375 C 3.9321858 7.5305804 4.7304081 7 5.625 7 z M 20 8 L 20 10 L 25 10 C 25.552 10 26 9.552 26 9 C 26 8.448 25.552 8 25 8 L 20 8 z M 3 12.75 C 3.3653714 12.902365 3.7606568 13 4.1875 13 L 27.8125 13 C 28.239237 13 28.634666 12.902365 29 12.75 L 29 23 C 29 24.116666 28.116666 25 27 25 L 5 25 C 3.8833339 25 3 24.116666 3 23 L 3 12.75 z M 6.5 15 C 5.1309372 15 4 16.130937 4 17.5 C 4 18.869063 5.1309372 20 6.5 20 C 6.7869372 20 7 20.213063 7 20.5 C 7 20.864232 6.9391515 21 6.5 21 C 6.1207053 21 6.0682248 20.912147 6.0625 20.90625 C 6.0567752 20.900353 6 20.866336 6 20.625 L 4 20.625 C 4 21.192664 4.1567248 21.830147 4.625 22.3125 C 5.0932752 22.794853 5.7752947 23 6.5 23 C 7.9088485 23 9 21.791768 9 20.5 C 9 19.130937 7.8690628 18 6.5 18 C 6.2130628 18 6 17.786937 6 17.5 C 6 17.213063 6.2130628 17 6.5 17 C 6.7703398 17 6.8441188 17.05675 6.90625 17.125 C 6.9683812 17.19325 7 17.320536 7 17.40625 L 9 17.40625 C 9 16.839964 8.8053688 16.254 8.375 15.78125 C 7.9446312 15.3085 7.2596602 15 6.5 15 z M 10 15 L 10 16 L 10 23 L 12 23 L 12 21 C 13.64497 21 15 19.64497 15 18 C 15 16.35503 13.64497 15 12 15 L 11 15 L 10 15 z M 17.21875 15 L 17 15.6875 L 15.0625 21.6875 L 15 21.84375 L 15 22 L 15 23 L 17 23 L 17 22.125 L 17.03125 22 L 18.96875 22 L 19 22.125 L 19 23 L 21 23 L 21 22 L 21 21.84375 L 20.9375 21.6875 L 19 15.6875 L 18.78125 15 L 18.0625 15 L 17.9375 15 L 17.21875 15 z M 22 15 L 22 16 L 22 23 L 24 23 L 24 18.34375 L 24.1875 18.59375 L 25 19.65625 L 25.8125 18.59375 L 26 18.34375 L 26 23 L 28 23 L 28 16 L 28 15 L 27 15 L 26.5 15 L 26 15 L 25.6875 15.40625 L 25 16.3125 L 24.3125 15.40625 L 24 15 L 23.5 15 L 23 15 L 22 15 z M 12 17 C 12.56503 17 13 17.43497 13 18 C 13 18.56503 12.56503 19 12 19 L 12 17 z M 18 19.0625 L 18.3125 20 L 17.6875 20 L 18 19.0625 z" fill="#FFF" stroke="transparent" color="#FFF" font-family="Sans"></path>
</svg>
